<svg width="300" height="300" viewBox="0 0 300 300" fill="none" xmlns="http://www.w3.org/2000/svg">
<circle cx="150" cy="150" r="150" fill="white"/>
<path d="M222 42H78C71.3726 42 66 48.9076 66 57.4286V242.571C66 251.092 71.3726 258 78 258H222C228.627 258 234 251.092 234 242.571V57.4286C234 48.9076 228.627 42 222 42Z" fill="white" stroke="#CBD5E1" stroke-width="6"/>
<path d="M86.7402 218.5H190.06C192.405 218.5 194.3 220.396 194.3 222.725V234.173C194.3 236.502 192.405 238.396 190.06 238.396H86.7402C84.3947 238.396 82.5002 236.502 82.5 234.173V222.725C82.5 220.396 84.3946 218.5 86.7402 218.5Z" fill="#E2E8F0" stroke="#4F46E5" stroke-width="3"/>
<path fill-rule="evenodd" clip-rule="evenodd" d="M218.901 226.099C216.103 223.3 211.565 223.3 208.767 226.099L203.7 231.166C200.901 233.965 200.901 238.502 203.7 241.3C204.399 242 205.534 242 206.233 241.3C206.933 240.601 206.933 239.466 206.233 238.767C204.834 237.368 204.834 235.099 206.233 233.7L211.3 228.632C212.7 227.233 214.968 227.233 216.368 228.632C217.767 230.032 217.767 232.3 216.368 233.7L215.101 234.966C214.401 235.666 214.401 236.8 215.101 237.5C215.8 238.2 216.935 238.2 217.634 237.5L218.901 236.233C221.7 233.435 221.7 228.897 218.901 226.099ZM208.767 233.7C208.067 234.399 208.067 235.534 208.767 236.233C210.166 237.633 210.166 239.901 208.767 241.3L203.7 246.368C202.3 247.767 200.032 247.767 198.632 246.368C197.233 244.968 197.233 242.7 198.632 241.3L199.899 240.034C200.599 239.334 200.599 238.2 199.899 237.5C199.2 236.8 198.065 236.8 197.366 237.5L196.099 238.767C193.3 241.565 193.3 246.103 196.099 248.901C198.897 251.7 203.435 251.7 206.233 248.901L211.3 243.834C214.099 241.035 214.099 236.498 211.3 233.7C210.601 233 209.466 233 208.767 233.7Z" fill="#CBD5E1"/>
<path d="M205.8 157H86.2C83.3281 157 81 159.574 81 162.75V174.25C81 177.426 83.3281 180 86.2 180H205.8C208.672 180 211 177.426 211 174.25V162.75C211 159.574 208.672 157 205.8 157Z" fill="#E2E8F0"/>
<path d="M218.76 122.621H86.74C83.5699 122.621 81 125.184 81 128.345V139.794C81 142.955 83.5699 145.518 86.74 145.518H218.76C221.93 145.518 224.5 142.955 224.5 139.794V128.345C224.5 125.184 221.93 122.621 218.76 122.621Z" fill="#E2E8F0"/>
<path d="M190.06 88H86.74C83.5699 88 81 90.5628 81 93.7242V105.173C81 108.334 83.5699 110.897 86.74 110.897H190.06C193.23 110.897 195.8 108.334 195.8 105.173V93.7242C195.8 90.5628 193.23 88 190.06 88Z" fill="#E2E8F0"/>
<path d="M218.76 94H101.09C97.9199 94 95.35 96.5628 95.35 99.7242V111.173C95.35 114.334 97.9199 116.897 101.09 116.897H218.76C221.93 116.897 224.5 114.334 224.5 111.173V99.7242C224.5 96.5628 221.93 94 218.76 94Z" fill="#4F46E5"/>
<path d="M190.06 128.345H101.09C97.9199 128.345 95.35 130.908 95.35 134.069V145.518C95.35 148.679 97.9199 151.242 101.09 151.242H190.06C193.23 151.242 195.8 148.679 195.8 145.518V134.069C195.8 130.908 193.23 128.345 190.06 128.345Z" fill="#4F46E5"/>
<path d="M121 67H85C83.8954 67 83 67.8954 83 69V73C83 74.1046 83.8954 75 85 75H121C122.105 75 123 74.1046 123 73V69C123 67.8954 122.105 67 121 67Z" fill="#4F46E5"/>
<path d="M156 67H130C128.895 67 128 67.8954 128 69V73C128 74.1046 128.895 75 130 75H156C157.105 75 158 74.1046 158 73V69C158 67.8954 157.105 67 156 67Z" fill="#CBD5E1"/>
<path d="M196 67H165C163.895 67 163 67.8954 163 69V73C163 74.1046 163.895 75 165 75H196C197.105 75 198 74.1046 198 73V69C198 67.8954 197.105 67 196 67Z" fill="#CBD5E1"/>
<path d="M121 194H85C83.8954 194 83 194.895 83 196V200C83 201.105 83.8954 202 85 202H121C122.105 202 123 201.105 123 200V196C123 194.895 122.105 194 121 194Z" fill="#4F46E5"/>
<path d="M156 194H130C128.895 194 128 194.895 128 196V200C128 201.105 128.895 202 130 202H156C157.105 202 158 201.105 158 200V196C158 194.895 157.105 194 156 194Z" fill="#CBD5E1"/>
<path d="M196 194H165C163.895 194 163 194.895 163 196V200C163 201.105 163.895 202 165 202H196C197.105 202 198 201.105 198 200V196C198 194.895 197.105 194 196 194Z" fill="#CBD5E1"/>
</svg>
